<?xml version="1.0" encoding="UTF-8" standalone="no"?>
<!-- Created with Inkscape (http://www.inkscape.org/) -->

<svg
   xmlns:dc="http://purl.org/dc/elements/1.1/"
   xmlns:cc="http://creativecommons.org/ns#"
   xmlns:rdf="http://www.w3.org/1999/02/22-rdf-syntax-ns#"
   xmlns:svg="http://www.w3.org/2000/svg"
   xmlns="http://www.w3.org/2000/svg"
   xmlns:sodipodi="http://sodipodi.sourceforge.net/DTD/sodipodi-0.dtd"
   xmlns:inkscape="http://www.inkscape.org/namespaces/inkscape"
   version="1.1"
   id="svg2"
   width="193"
   height="258.55771"
   viewBox="0 0 193 258.55771"
   sodipodi:docname="Extension.svg"
   inkscape:version="0.92.5 (2060ec1f9f, 2020-04-08)">
  <metadata
     id="metadata8">
    <rdf:RDF>
      <cc:Work
         rdf:about="">
        <dc:format>image/svg+xml</dc:format>
        <dc:type
           rdf:resource="http://purl.org/dc/dcmitype/StillImage" />
        <dc:title></dc:title>
      </cc:Work>
    </rdf:RDF>
  </metadata>
  <defs
     id="defs6" />
  <sodipodi:namedview
     pagecolor="#ffffff"
     bordercolor="#666666"
     borderopacity="1"
     objecttolerance="10"
     gridtolerance="10"
     guidetolerance="10"
     inkscape:pageopacity="0"
     inkscape:pageshadow="2"
     inkscape:window-width="1920"
     inkscape:window-height="1015"
     id="namedview4"
     showgrid="false"
     fit-margin-top="0"
     fit-margin-left="0"
     fit-margin-right="0"
     fit-margin-bottom="0"
     inkscape:zoom="0.91119691"
     inkscape:cx="95.402543"
     inkscape:cy="130.27742"
     inkscape:window-x="1920"
     inkscape:window-y="0"
     inkscape:window-maximized="1"
     inkscape:current-layer="svg2" />
  <path
     style="fill:#000000"
     d="M 18,257.95751 C 11.082165,256.23916 5.509503,251.72194 1.864162,244.87774 0.077209,241.5227 0,236.73897 0,129.37774 0,22.0165 0.07721,17.232772 1.864162,13.877733 4.473279,8.9790642 8.319527,5.0617532 13,2.5361502 16.942447,0.40878918 17.804065,0.37367118 72.882995,0.09543718 c 48.980925,-0.24743 56.576745,-0.08316 61.500005,1.33003202 5.35101,1.535976 6.78144,2.780568 30.20679,26.2822958 15.13394,15.183286 25.32435,26.208143 26.5,28.669968 1.83674,3.846158 1.91021,7.480683 1.91021,94.500007 0,86.38346 -0.0848,90.6592 -1.86416,94 -2.60912,4.89867 -6.45537,8.81598 -11.13584,11.34158 -3.99188,2.15404 -4.15726,2.15875 -81.499997,2.32089 C 55.875,258.62961 19.65,258.36736 18,257.95751 Z M 169.5,161.87774 V 88.877733 l -27.75,-0.0037 C 102.19695,88.868633 104.5,91.215869 104.5,50.909852 V 23.877733 H 64 23.5 v 105.500007 105.5 h 73 73 z M 43.423078,206.95466 c -4.029664,-4.02966 -4.011591,-9.27419 0.05129,-14.88283 2.733491,-3.77348 12.472279,-11.30377 19.87857,-15.37065 3.197391,-1.75573 8.036135,-10.41413 16.334897,-29.22951 l 4.010987,-9.09393 -2.243615,-11.69138 c -2.542391,-13.24827 -2.317548,-22.64577 0.619467,-25.89113 0.963012,-1.064125 3.433715,-2.438942 5.490452,-3.055155 3.15086,-0.944021 4.345207,-0.8246 7.587197,0.758635 2.137884,1.044045 4.45973,3.16852 5.225017,4.78087 2.24274,4.72509 2.38537,14.2573 0.35703,23.86002 l -1.850727,8.76186 3.281547,6.23814 c 1.89277,3.59811 5.62718,8.40382 8.82406,11.35545 l 5.54251,5.11731 11.23412,-0.48485 c 18.5145,-0.79906 24.73412,2.16355 24.73412,11.7817 0,4.32824 -0.45317,5.57555 -2.92308,8.04545 -2.56597,2.56598 -3.63493,2.92163 -8.75,2.91121 -6.90091,-0.0141 -13.97158,-1.76215 -21.98824,-5.43619 -6.96824,-3.19355 -7.51591,-3.13068 -26.454689,3.03681 l -13.61601,4.43411 -3.782674,5.73857 C 62.285575,207.90551 50.951225,214.48281 43.423078,206.95466 Z M 58.770123,193.1211 c 6.075332,-7.97222 6.467279,-8.77263 3.269902,-6.67763 -2.941641,1.92744 -11.540024,12.03173 -11.540024,13.56112 0,2.01593 4.06937,-1.37114 8.270122,-6.88349 z m 39.443501,-26.20707 8.213626,-2.69127 -4.52029,-4.42251 c -2.486157,-2.43238 -5.732289,-6.33421 -7.213624,-8.67072 -1.481335,-2.33652 -2.920627,-4.24902 -3.198427,-4.25 -0.277801,-9.9e-4 -1.581611,2.81071 -2.897356,6.24821 -1.315745,3.4375 -3.900954,9.27627 -5.744909,12.97504 -1.843954,3.69877 -3.352644,6.9547 -3.352644,7.2354 0,0.28071 2.3625,-0.44436 5.25,-1.61125 2.8875,-1.1669 8.946131,-3.3327 13.463624,-4.8129 z m 47.755366,4.01388 c 1.06937,-1.73027 -3.85419,-3.37571 -11.46315,-3.83097 -5.38853,-0.32241 -7.21694,-0.14187 -6.48168,0.64001 2.86597,3.04772 16.53153,5.47773 17.94483,3.19096 z M 94.039746,118.40592 C 94.79107,112.39252 93.637708,105.75698 91.730669,105.1213 90.835049,104.82276 90.5,106.60548 90.5,111.66941 c 0,13.02903 2.22459,17.26266 3.539746,6.73651 z M 167.5,64.618116 c 0,-0.142789 -8.775,-9.025962 -19.5,-19.740383 L 128.5,25.396967 V 45.13735 64.877733 H 148 c 10.725,0 19.5,-0.116828 19.5,-0.259617 z"
     id="path817"
     inkscape:connector-curvature="0" />
</svg>
